<svg width="980" height="318" viewBox="0 0 980 318" fill="none" xmlns="http://www.w3.org/2000/svg">
<path d="M979 235.375C979 239.595 975.916 244.164 969.449 248.958C963.027 253.719 953.497 258.53 941.135 263.274C916.424 272.756 880.614 281.892 836.305 289.856C747.7 305.782 625.261 317 490 317C354.739 317 232.3 305.782 143.695 289.856C99.3855 281.892 63.5759 272.756 38.8649 263.274C26.5035 258.53 16.9727 253.719 10.5506 248.958C4.08421 244.164 1 239.595 1 235.375C1 233.486 2.16578 231.586 4.86708 229.688C7.5617 227.794 11.6187 226.028 16.9876 224.402C27.7124 221.154 43.3923 218.545 63.1301 216.468C102.588 212.316 158.043 210.312 221.991 209.487C299.877 208.482 390.291 209.227 479.656 209.963C537.042 210.436 593.995 210.905 646.92 210.905C710.028 210.905 761.795 210.238 804.088 209.693C852.518 209.07 888.524 208.606 914.909 209.486C939.642 210.312 955.735 212.318 965.631 216.398C970.552 218.427 973.867 220.939 975.962 224.009C978.054 227.074 979 230.797 979 235.375Z" fill="#F2F2F2" stroke="black" stroke-width="2"/>
<path d="M490.74 44.5507L490.846 44.0635L490.52 43.686C487.888 40.6394 486.185 36.9977 486.472 32.9798C486.678 30.0982 487.831 28.1875 489.428 26.9666C491.054 25.7234 493.235 25.125 495.58 25.0834C497.92 25.0417 500.345 25.5576 502.379 26.4548C504.432 27.3609 505.968 28.6014 506.685 29.9193C508.281 32.8548 509.044 38.2465 508.817 43.1327C508.705 45.5568 508.351 47.7691 507.781 49.4139C507.496 50.2366 507.171 50.8755 506.827 51.3227C506.484 51.7684 506.165 51.9714 505.89 52.0413C505.28 52.1966 504.111 52.1055 502.498 51.6109C500.933 51.1311 499.094 50.3169 497.225 49.2062L495.426 48.1375L495.722 50.2069L497.974 65.9528L486.075 65.9568L490.74 44.5507Z" fill="#784931" stroke="black" stroke-width="2"/>
<path d="M494.354 23.0724L495.021 21.4982C495.635 20.0497 495.876 18.4407 495.68 16.8844C495.514 15.5651 494.971 14.4235 494.337 13.0895C494.253 12.9128 494.168 12.7328 494.081 12.5484C493.762 11.8679 493.455 11.3216 493.045 10.926L493.045 10.926C492.628 10.5242 492.086 10.2464 491.498 10.1121L491.498 10.1121C490.894 9.97411 490.242 9.98198 489.599 10.1155L489.599 10.1155C489.507 10.1347 489.405 10.1679 489.246 10.2253C489.231 10.2306 489.216 10.2363 489.2 10.2421C489.061 10.2925 488.871 10.3616 488.671 10.4127L494.354 23.0724ZM494.354 23.0724L496.055 22.8797C496.55 22.8236 497.478 22.8324 498.552 22.9357C499.616 23.038 500.743 23.2255 501.635 23.4935C502.415 23.7277 503.714 24.5378 505.01 25.5655C506.3 26.5879 507.377 27.6574 507.779 28.2773M494.354 23.0724L507.779 28.2773M507.779 28.2773C507.8 28.3097 507.822 28.3434 507.841 28.3723C507.846 28.3798 507.851 28.3869 507.855 28.3937C507.879 28.4292 507.898 28.4588 507.915 28.4866C507.925 28.5016 507.933 28.5149 507.94 28.5267C507.934 28.5367 507.927 28.5477 507.919 28.5596C507.868 28.6369 507.8 28.721 507.718 28.8151C507.443 29.1293 507.033 29.3399 506.427 29.5909C505.449 29.9959 504.416 30.2429 503.291 30.5117C503.187 30.5366 503.082 30.5616 502.977 30.587C501.762 30.8789 500.452 31.2126 499.212 31.8273L499.657 32.7221L499.212 31.8273C497.228 32.812 495.895 34.5654 495.114 36.5101C494.611 36.279 494.067 36.0659 493.504 35.922C492.512 35.6683 491.386 35.6106 490.277 36.1015C489.273 36.5463 488.688 37.4058 488.384 38.2696C488.081 39.1286 488.023 40.0731 488.118 40.8837L489.112 40.7668L488.118 40.8838C488.307 42.4969 489.068 43.8685 490.283 44.8837M507.779 28.2773L484.881 45.5711C485.548 45.825 486.144 46.0421 486.75 46.1655C487.966 46.4127 489.035 46.294 489.684 45.6331C489.907 45.4056 490.129 45.1548 490.314 44.9094M490.283 44.8837C490.283 44.8837 490.283 44.8837 490.283 44.8837L490.547 44.5686M490.283 44.8837L490.547 44.5689M490.283 44.8837C490.293 44.8924 490.304 44.9009 490.314 44.9094M490.547 44.5686C490.547 44.5687 490.547 44.5688 490.547 44.5689M490.547 44.5686C490.555 44.5563 490.562 44.544 490.569 44.5319L490.574 44.5363M490.547 44.5686L490.574 44.5361M490.547 44.5689C490.48 44.6792 490.401 44.7937 490.314 44.9094M490.547 44.5689L491.125 44.8563M490.314 44.9094C490.363 44.9496 490.411 44.987 490.45 45.017L490.451 45.0178C490.502 45.0577 490.54 45.0872 490.575 45.1164C490.642 45.1715 490.661 45.1944 490.661 45.1943C490.661 45.1943 490.661 45.194 490.661 45.1934L491.125 44.8563M491.125 44.8563L491.428 45.0331L491.125 44.8563L491.125 44.8563ZM490.574 44.5361C490.574 44.5362 490.574 44.5362 490.574 44.5363M490.574 44.5361L490.575 44.5354L490.575 44.5352C490.575 44.5355 490.575 44.5358 490.574 44.5361ZM490.574 44.5363L490.575 44.5354L491.125 44.8562L490.66 45.1933C490.636 45.1596 490.59 45.0867 490.56 44.9773C490.529 44.8607 490.528 44.7457 490.546 44.6461C490.554 44.6004 490.565 44.5631 490.574 44.5363ZM481.577 10.5591L481.577 10.5592C481.372 10.7874 481.217 11.0132 481.125 11.2308L481.577 10.5591ZM481.577 10.5591C482.003 10.0862 482.594 9.73482 483.256 9.5095L481.577 10.5591ZM477.324 14.452L477.324 14.452C477.063 15.0012 476.881 16.1603 476.927 17.638C476.945 18.2242 477.253 19.4664 477.762 20.8085C478.27 22.1505 478.89 23.3549 479.41 23.9323C480.403 25.0355 481.908 25.8025 483.404 26.1404L485.053 26.513L483.931 27.7773C482.96 28.8715 482.285 30.2739 481.767 31.7804C481.209 33.4012 480.864 35.0857 480.736 36.803L477.324 14.452ZM477.324 14.452C477.837 13.3744 478.778 12.5393 479.859 12.1747C479.865 12.1737 479.885 12.1696 479.935 12.1613C479.939 12.1607 479.942 12.1601 479.946 12.1595C480.015 12.1482 480.169 12.1228 480.327 12.0656L477.324 14.452ZM487.021 9.87108C486.644 9.54891 486.002 9.33602 485.337 9.25691L487.021 9.87108ZM487.021 9.87108C487.043 9.88934 487.065 9.90897 487.093 9.9345M487.021 9.87108L487.093 9.9345M487.093 9.9345L487.102 9.9421M487.093 9.9345L487.102 9.9421M487.102 9.9421C487.127 9.96441 487.158 9.99281 487.19 10.0203M487.102 9.9421L487.19 10.0203M487.19 10.0203C487.26 10.0807 487.367 10.1696 487.501 10.249M487.19 10.0203L487.501 10.249M487.501 10.249C487.823 10.4401 488.221 10.5278 488.671 10.4127L487.501 10.249ZM480.693 11.8637C480.57 11.9613 480.442 12.0239 480.327 12.0655L480.693 11.8637ZM480.693 11.8637C480.821 11.7631 480.912 11.65 480.978 11.5427M480.693 11.8637L480.978 11.5427M480.978 11.5427C481.038 11.4458 481.075 11.3564 481.092 11.3149M480.978 11.5427L481.092 11.3149M481.092 11.3149C481.107 11.2773 481.111 11.2658 481.114 11.2581M481.092 11.3149L481.114 11.2581M481.114 11.2581C481.117 11.2513 481.118 11.2475 481.125 11.231L481.114 11.2581ZM483.256 9.50948C483.945 9.27514 484.668 9.17736 485.337 9.2569L483.256 9.50948ZM483.073 44.7381C481.988 44.0872 481.307 43.0538 480.977 41.6919L482.558 45.5948L483.073 44.7381ZM480.977 41.6919C480.607 40.1686 480.611 38.4814 480.736 36.8031L480.977 41.6919Z" fill="#191847" stroke="black" stroke-width="2"/>
<path d="M473.822 191.652L495.047 117.829H465.16L448.676 246.281H458.275L473.822 191.655L473.822 191.652Z" fill="#191847" stroke="black" stroke-width="2"/>
<path d="M503.877 180.312C503.347 176.752 501.668 155.909 501.153 117.829H465.531C475.899 154.086 482.761 174.704 484.976 179.764C487.227 184.906 498.016 207.062 517.371 246.281H527.214C519.794 226.32 514.144 210.864 510.264 199.916C508.28 194.32 506.758 189.896 505.697 186.648C504.65 183.44 504.024 181.293 503.877 180.312Z" fill="#2F3676" stroke="black" stroke-width="2"/>
<path d="M524.767 256.814V256.999H528.674L528.174 246.555H516.934C511.073 250.596 503.549 253.868 494.394 256.393V256.999H515.949L523.616 255.825L524.767 255.649V256.814Z" fill="#191847" stroke="black" stroke-width="2"/>
<path d="M455.685 256.814V256.999H459.592L459.092 246.555H447.852C441.991 250.596 434.467 253.868 425.312 256.393V256.999H446.867L454.534 255.825L455.685 255.649V256.814Z" fill="#191847" stroke="black" stroke-width="2"/>
<path d="M447.22 102.687L427.987 113.804L427.825 113.897L427.641 113.926C422.484 114.74 418.149 115.958 414.62 117.565C414.554 117.616 414.491 117.669 414.433 117.722C414.67 117.771 415.016 117.813 415.505 117.827C417.203 117.876 419.003 117.964 420.435 118.2C421.147 118.317 421.827 118.479 422.376 118.721C422.883 118.945 423.527 119.345 423.742 120.082L422.781 120.363L423.742 120.082C423.927 120.719 423.745 121.285 423.554 121.684C423.414 121.975 423.211 122.285 423.053 122.529C423.009 122.595 422.969 122.657 422.934 122.712C422.721 123.049 422.607 123.281 422.569 123.469C422.891 123.326 423.349 123.062 423.961 122.635C425.512 121.551 427.759 119.63 430.723 116.837L430.898 116.672L431.128 116.604L449.686 111.166L447.22 102.687ZM533.554 136.958C532.202 130.489 530.449 121.432 528.297 109.793L519.795 109.53C523.08 121.849 525.623 131.321 527.426 137.945C529.302 144.838 530.359 148.585 530.62 149.293C531.385 151.374 530.8 153.797 530.004 155.86C529.409 157.403 528.618 158.925 527.991 160.133C527.981 160.152 527.971 160.172 527.96 160.191C528.143 160.179 528.289 160.126 528.418 160.061C528.801 159.868 529.13 159.528 529.623 159.018C529.685 158.954 529.75 158.887 529.818 158.817C530.357 158.263 531.082 157.553 532.097 157.232C533.165 156.893 534.372 157.031 535.793 157.748C536.869 158.29 537.881 158.921 538.827 159.511C538.936 159.579 539.044 159.646 539.15 159.713C540.207 160.37 541.179 160.955 542.161 161.376C543.131 161.791 544.076 162.03 545.062 162.01C546.044 161.991 547.131 161.714 548.384 161.008L548.384 161.008C548.384 161.008 548.389 161.005 548.398 160.998C548.407 160.991 548.419 160.981 548.433 160.967C548.462 160.939 548.495 160.901 548.527 160.853C548.591 160.756 548.636 160.642 548.649 160.526C548.667 160.362 548.645 160 548.024 159.546C545.854 157.959 543.225 155.797 541.036 153.811C539.941 152.817 538.946 151.858 538.168 151.029C537.425 150.237 536.78 149.461 536.504 148.855C536.188 148.162 535.793 146.798 535.317 144.867C534.833 142.902 534.245 140.264 533.554 136.958Z" fill="#B28B67" stroke="black" stroke-width="2"/>
<path d="M491.402 65.7862C491.638 63.4857 491.85 61.4139 492.06 59.8261L487.433 57.3563C474.989 77.0272 458.475 95.2929 434.149 108.997L437.258 117.394C439.454 116.587 441.628 115.805 443.771 115.035C451.641 112.205 459.104 109.521 465.798 106.28C474.551 102.043 481.861 96.9079 486.879 89.3918C487.635 88.2594 488.314 86.2729 488.906 83.693C489.49 81.1475 489.964 78.1445 490.363 75.0689C490.763 71.9959 491.086 68.8715 491.371 66.0832C491.382 65.9838 491.392 65.8848 491.402 65.7862Z" fill="#C5CFD6" stroke="black" stroke-width="2"/>
<path d="M461.305 115.355C471.242 119.034 485.32 121.548 503.587 122.865C505.927 96.1625 503.909 76.9154 495.569 59.0127C493.567 58.9195 491.839 58.7181 490.396 58.4008C489.456 58.194 488.612 57.933 487.883 57.6067C484.698 73.4834 474.739 92.0661 461.58 112.778C461.244 113.306 461.04 114.013 461.044 114.596C461.048 115.223 461.257 115.337 461.305 115.355Z" fill="#323337" stroke="black" stroke-width="2"/>
<path d="M499.423 58.1968L499.35 58.184L499.177 58.1537L495.172 57.4512C494.871 58.4809 494.419 60.2036 493.828 62.5379C493.26 64.7816 492.572 67.5549 491.778 70.7538C491.479 71.9596 491.165 73.2259 490.837 74.5471C488.439 84.1947 485.288 96.7488 481.701 109.958C478.115 123.166 474.09 137.039 469.945 149.325C466.047 160.877 462.023 171.084 458.133 178.016L515.399 188.063C518.584 161.394 514.147 128.067 508.648 99.7163L510.421 98.911C518.138 108.853 523.61 124.185 526.925 144.78L536.714 144.043C534.532 107.781 522.158 79.2918 499.661 58.4713L499.439 58.2665L499.423 58.1968Z" fill="#DDE3E9" stroke="black" stroke-width="2"/>
<path d="M829.989 79.5781L829.886 79.0973L830.204 78.7223C832.944 75.4922 834.726 71.6219 834.427 67.3455C834.212 64.2765 833.006 62.2394 831.337 60.9398C829.641 59.6188 827.368 58.9861 824.93 58.9428C822.496 58.8996 819.973 59.4468 817.857 60.3985C815.722 61.3586 814.115 62.6764 813.362 64.0866C811.694 67.2083 810.9 72.9281 811.134 78.1031C811.251 80.6717 811.618 83.0196 812.212 84.768C812.509 85.6427 812.85 86.3253 813.212 86.8048C813.573 87.2835 813.912 87.504 814.205 87.5798C814.846 87.7456 816.065 87.6472 817.742 87.123C819.37 86.614 821.283 85.751 823.227 84.574L825.029 83.4835L824.735 85.5689L822.381 102.295H834.842L829.989 79.5781Z" fill="#B28B67" stroke="black" stroke-width="2"/>
<mask id="path-13-inside-1_657_9859" fill="white">
<path fill-rule="evenodd" clip-rule="evenodd" d="M841.904 62.8497C842.383 62.3724 842.645 61.6912 842.871 61.0443C843.106 60.3724 843.335 59.6935 843.491 58.9941C843.802 57.5966 843.805 55.9895 842.813 54.9044C842.017 54.0343 840.822 53.644 839.72 53.5592C838.985 53.5026 838.231 53.6059 837.527 53.8384C836.828 54.069 836.226 54.5285 835.549 54.8138C835.523 53.3078 835.266 51.7321 834.505 50.4462C833.773 49.209 832.606 48.5148 831.277 48.3311C829.912 48.1426 828.565 48.4632 827.344 49.1265C827.038 49.2926 826.735 49.4667 826.445 49.6636C826.202 49.8286 825.95 50.0272 825.665 50.0943C825.348 50.1692 825.19 49.985 824.984 49.7523C824.742 49.4796 824.469 49.2393 824.181 49.0264C822.905 48.0848 821.232 47.6977 819.754 48.262C819.073 48.5221 818.411 48.9637 817.949 49.5722C817.537 50.1146 817.244 50.9751 816.675 51.353C816.434 51.5134 816.264 51.3009 816.044 51.1438C815.714 50.9078 815.4 50.6473 815.066 50.4177C814.597 50.0951 814.09 49.8538 813.546 49.7275C812.75 49.5426 811.65 49.5859 811.423 50.6327C811.337 51.0259 811.403 51.4464 811.43 51.8426C811.468 52.3866 811.508 52.9304 811.555 53.4735C811.591 53.886 811.636 54.2843 811.713 54.6893C811.755 54.9052 811.884 55.3076 811.792 55.5238C811.677 55.7941 811.145 55.6404 810.918 55.6498C810.469 55.6684 810.019 55.7474 809.604 55.94C809.282 56.0892 808.944 56.3087 808.808 56.6787C808.725 56.9061 808.747 57.1396 808.786 57.3735C808.834 57.6541 808.78 57.803 808.744 58.0862C808.142 57.7882 806.054 57.1262 805.791 58.2107C805.703 58.5718 805.903 58.9798 806.055 59.2843C806.321 59.8185 806.671 60.3067 807.028 60.7723C807.773 61.7436 808.663 62.5814 809.62 63.2978C808.499 63.7985 808.206 65.2754 809.177 66.1554C809.606 66.5438 810.182 66.6303 810.723 66.6055C810.921 66.5964 811.206 66.52 811.362 66.5546C811.446 66.5732 811.535 66.6446 811.651 66.6525C812.415 66.705 813.276 66.5204 814.022 66.3503C815.352 66.0472 816.61 65.4147 817.638 64.4514C817.902 64.2043 818.119 64.062 818.474 64.0657C818.785 64.0688 819.09 64.1544 819.401 64.1624C820.223 64.1834 820.964 63.7799 821.728 63.5112C821.774 64.5468 822.068 65.6874 822.49 66.6191C822.834 67.3788 823.552 67.4892 824.258 67.5559C826.515 67.7692 828.781 67.5312 831.041 67.5343C828.853 68.0309 826.592 68.2356 824.424 68.82C823.443 69.0842 824.192 69.7476 824.611 70.2075C825.301 70.9648 825.814 71.9032 826.17 72.8917C827.24 71.4907 829.132 70.5675 830.808 70.9979C832.66 71.4734 833.964 73.9883 832.78 75.7963C832.092 76.8459 830.851 77.2511 829.818 77.702C830.624 78.5434 830.818 79.7861 831.304 80.8329C831.543 81.3492 831.879 81.9328 832.414 82.1127C832.611 82.1793 832.844 82.185 833 82.347C833.193 82.5477 833.239 82.772 833.486 82.9444C834.472 83.6326 836.012 83.5795 836.885 82.6814C837.675 81.8692 837.47 80.5839 836.81 79.7604C837.86 79.3207 839.774 78.7553 839.356 77.1119C841.633 76.9601 847.159 73.2531 844.104 70.5442C845.78 69.5927 847.321 67.2673 846.244 65.2174C845.414 63.639 843.486 62.9334 841.904 62.8497Z"/>
</mask>
<path fill-rule="evenodd" clip-rule="evenodd" d="M841.904 62.8497C842.383 62.3724 842.645 61.6912 842.871 61.0443C843.106 60.3724 843.335 59.6935 843.491 58.9941C843.802 57.5966 843.805 55.9895 842.813 54.9044C842.017 54.0343 840.822 53.644 839.72 53.5592C838.985 53.5026 838.231 53.6059 837.527 53.8384C836.828 54.069 836.226 54.5285 835.549 54.8138C835.523 53.3078 835.266 51.7321 834.505 50.4462C833.773 49.209 832.606 48.5148 831.277 48.3311C829.912 48.1426 828.565 48.4632 827.344 49.1265C827.038 49.2926 826.735 49.4667 826.445 49.6636C826.202 49.8286 825.95 50.0272 825.665 50.0943C825.348 50.1692 825.19 49.985 824.984 49.7523C824.742 49.4796 824.469 49.2393 824.181 49.0264C822.905 48.0848 821.232 47.6977 819.754 48.262C819.073 48.5221 818.411 48.9637 817.949 49.5722C817.537 50.1146 817.244 50.9751 816.675 51.353C816.434 51.5134 816.264 51.3009 816.044 51.1438C815.714 50.9078 815.4 50.6473 815.066 50.4177C814.597 50.0951 814.09 49.8538 813.546 49.7275C812.75 49.5426 811.65 49.5859 811.423 50.6327C811.337 51.0259 811.403 51.4464 811.43 51.8426C811.468 52.3866 811.508 52.9304 811.555 53.4735C811.591 53.886 811.636 54.2843 811.713 54.6893C811.755 54.9052 811.884 55.3076 811.792 55.5238C811.677 55.7941 811.145 55.6404 810.918 55.6498C810.469 55.6684 810.019 55.7474 809.604 55.94C809.282 56.0892 808.944 56.3087 808.808 56.6787C808.725 56.9061 808.747 57.1396 808.786 57.3735C808.834 57.6541 808.78 57.803 808.744 58.0862C808.142 57.7882 806.054 57.1262 805.791 58.2107C805.703 58.5718 805.903 58.9798 806.055 59.2843C806.321 59.8185 806.671 60.3067 807.028 60.7723C807.773 61.7436 808.663 62.5814 809.62 63.2978C808.499 63.7985 808.206 65.2754 809.177 66.1554C809.606 66.5438 810.182 66.6303 810.723 66.6055C810.921 66.5964 811.206 66.52 811.362 66.5546C811.446 66.5732 811.535 66.6446 811.651 66.6525C812.415 66.705 813.276 66.5204 814.022 66.3503C815.352 66.0472 816.61 65.4147 817.638 64.4514C817.902 64.2043 818.119 64.062 818.474 64.0657C818.785 64.0688 819.09 64.1544 819.401 64.1624C820.223 64.1834 820.964 63.7799 821.728 63.5112C821.774 64.5468 822.068 65.6874 822.49 66.6191C822.834 67.3788 823.552 67.4892 824.258 67.5559C826.515 67.7692 828.781 67.5312 831.041 67.5343C828.853 68.0309 826.592 68.2356 824.424 68.82C823.443 69.0842 824.192 69.7476 824.611 70.2075C825.301 70.9648 825.814 71.9032 826.17 72.8917C827.24 71.4907 829.132 70.5675 830.808 70.9979C832.66 71.4734 833.964 73.9883 832.78 75.7963C832.092 76.8459 830.851 77.2511 829.818 77.702C830.624 78.5434 830.818 79.7861 831.304 80.8329C831.543 81.3492 831.879 81.9328 832.414 82.1127C832.611 82.1793 832.844 82.185 833 82.347C833.193 82.5477 833.239 82.772 833.486 82.9444C834.472 83.6326 836.012 83.5795 836.885 82.6814C837.675 81.8692 837.47 80.5839 836.81 79.7604C837.86 79.3207 839.774 78.7553 839.356 77.1119C841.633 76.9601 847.159 73.2531 844.104 70.5442C845.78 69.5927 847.321 67.2673 846.244 65.2174C845.414 63.639 843.486 62.9334 841.904 62.8497Z" fill="#191847"/>
<path d="M842.871 61.0443L844.759 61.7047L844.759 61.7046L842.871 61.0443ZM843.491 58.9941L841.539 58.5586L841.539 58.5586L843.491 58.9941ZM842.813 54.9044L844.288 53.5545L844.288 53.5544L842.813 54.9044ZM839.72 53.5592L839.566 55.5533L839.566 55.5533L839.72 53.5592ZM837.527 53.8384L838.153 55.7376L838.154 55.7375L837.527 53.8384ZM835.549 54.8138L833.549 54.8481L833.6 57.8049L836.325 56.657L835.549 54.8138ZM834.505 50.4462L836.226 49.4279L836.226 49.4278L834.505 50.4462ZM831.277 48.3311L831.55 46.3499L831.55 46.3499L831.277 48.3311ZM827.344 49.1265L826.389 47.369L826.389 47.3691L827.344 49.1265ZM826.445 49.6636L825.321 48.0093L825.321 48.0094L826.445 49.6636ZM825.665 50.0943L825.207 48.1475L825.206 48.1477L825.665 50.0943ZM824.984 49.7523L823.488 51.0795L823.488 51.0795L824.984 49.7523ZM824.181 49.0264L825.369 47.4174L825.369 47.4173L824.181 49.0264ZM819.754 48.262L820.468 50.1304L820.468 50.1304L819.754 48.262ZM817.949 49.5722L819.542 50.7814V50.7814L817.949 49.5722ZM816.675 51.353L815.568 49.6876L815.568 49.6878L816.675 51.353ZM816.044 51.1438L814.88 52.7702L814.881 52.7704L816.044 51.1438ZM815.066 50.4177L813.932 52.0654L813.933 52.0655L815.066 50.4177ZM813.546 49.7275L813.093 51.6756L813.093 51.6756L813.546 49.7275ZM811.423 50.6327L809.468 50.2079L809.468 50.2081L811.423 50.6327ZM811.43 51.8426L813.426 51.7037L813.426 51.7035L811.43 51.8426ZM811.555 53.4735L813.547 53.301L813.547 53.301L811.555 53.4735ZM811.713 54.6893L809.749 55.0652L809.749 55.0654L811.713 54.6893ZM811.792 55.5238L809.952 54.7393L809.952 54.7395L811.792 55.5238ZM810.918 55.6498L810.835 53.6515L810.835 53.6515L810.918 55.6498ZM809.604 55.94L808.762 54.1258L808.762 54.1259L809.604 55.94ZM808.808 56.6787L810.686 57.3678L810.686 57.3673L808.808 56.6787ZM808.786 57.3735L810.759 57.0413L810.759 57.0412L808.786 57.3735ZM808.744 58.0862L807.858 59.879L810.381 61.1267L810.729 58.3336L808.744 58.0862ZM805.791 58.2107L803.847 57.7398L803.847 57.7398L805.791 58.2107ZM806.055 59.2843L807.844 58.3913L807.844 58.3913L806.055 59.2843ZM807.028 60.7723L808.615 59.5549L808.615 59.5548L807.028 60.7723ZM809.62 63.2978L810.435 65.1241L813.544 63.7364L810.818 61.6967L809.62 63.2978ZM809.177 66.1554L807.834 67.6374L807.834 67.6374L809.177 66.1554ZM810.723 66.6055L810.631 64.6076L810.631 64.6076L810.723 66.6055ZM811.362 66.5546L810.928 68.5069L810.928 68.5071L811.362 66.5546ZM811.651 66.6525L811.789 64.6572L811.788 64.6572L811.651 66.6525ZM814.022 66.3503L814.467 68.3003L814.467 68.3003L814.022 66.3503ZM817.638 64.4514L816.27 62.9921L816.27 62.9922L817.638 64.4514ZM818.474 64.0657L818.454 66.0656L818.454 66.0656L818.474 64.0657ZM819.401 64.1624L819.452 62.163L819.452 62.163L819.401 64.1624ZM821.728 63.5112L823.726 63.421L823.604 60.7307L821.064 61.6247L821.728 63.5112ZM822.49 66.6191L820.668 67.444L820.668 67.444L822.49 66.6191ZM824.258 67.5559L824.446 65.5648L824.446 65.5647L824.258 67.5559ZM831.041 67.5343L831.483 69.4847L831.043 65.5343L831.041 67.5343ZM824.424 68.82L824.944 70.7512L824.944 70.7511L824.424 68.82ZM824.611 70.2075L826.089 68.8604L826.089 68.8604L824.611 70.2075ZM826.17 72.8917L824.288 73.5692L825.532 77.0223L827.759 74.1058L826.17 72.8917ZM830.808 70.9979L830.311 72.9351L830.311 72.9351L830.808 70.9979ZM832.78 75.7963L834.453 76.8922L834.453 76.8921L832.78 75.7963ZM829.818 77.702L829.018 75.8691L826.391 77.0156L828.373 79.0854L829.818 77.702ZM831.304 80.8329L829.489 81.6738L829.489 81.6738L831.304 80.8329ZM832.414 82.1127L833.051 80.2171L833.051 80.2171L832.414 82.1127ZM833 82.347L831.559 83.7348L831.56 83.7353L833 82.347ZM833.486 82.9444L834.631 81.3045L834.631 81.3044L833.486 82.9444ZM836.885 82.6814L838.319 84.076L838.319 84.076L836.885 82.6814ZM836.81 79.7604L836.038 77.9155L833.59 78.9402L835.249 81.0111L836.81 79.7604ZM839.356 77.1119L839.223 75.1163L836.827 75.2761L837.418 77.6043L839.356 77.1119ZM844.104 70.5442L843.117 68.8049L840.685 70.1852L842.777 72.0406L844.104 70.5442ZM846.244 65.2174L844.473 66.1476L844.473 66.1476L846.244 65.2174ZM843.315 64.2673C844.163 63.4229 844.547 62.3112 844.759 61.7047L840.983 60.3839C840.743 61.0711 840.604 61.3219 840.493 61.4321L843.315 64.2673ZM844.759 61.7046C844.995 61.0291 845.259 60.2536 845.443 59.4295L841.539 58.5586C841.41 59.1334 841.217 59.7156 840.983 60.3841L844.759 61.7046ZM845.443 59.4296C845.791 57.8698 845.971 55.3936 844.288 53.5545L841.337 56.2544C841.64 56.5854 841.814 57.3235 841.539 58.5586L845.443 59.4296ZM844.288 53.5544C843.028 52.1768 841.269 51.6724 839.873 51.5651L839.566 55.5533C840.375 55.6155 841.005 55.8917 841.337 56.2545L844.288 53.5544ZM839.873 51.5651C838.853 51.4865 837.834 51.6307 836.9 51.9392L838.154 55.7375C838.627 55.5811 839.117 55.5187 839.566 55.5533L839.873 51.5651ZM836.9 51.9391C836.354 52.1191 835.885 52.3756 835.557 52.5577C835.182 52.7666 834.984 52.8816 834.772 52.9706L836.325 56.657C836.791 56.4607 837.232 56.2033 837.502 56.0534C837.819 55.8768 838 55.7882 838.153 55.7376L836.9 51.9391ZM837.548 54.7795C837.52 53.1121 837.239 51.1388 836.226 49.4279L832.784 51.4646C833.293 52.3254 833.526 53.5036 833.549 54.8481L837.548 54.7795ZM836.226 49.4278C835.157 47.6203 833.429 46.6095 831.55 46.3499L831.003 50.3123C831.782 50.42 832.389 50.7978 832.784 51.4647L836.226 49.4278ZM831.55 46.3499C829.688 46.0926 827.913 46.5414 826.389 47.369L828.298 50.8841C829.217 50.3851 830.136 50.1926 831.003 50.3123L831.55 46.3499ZM826.389 47.3691C826.059 47.5483 825.69 47.7585 825.321 48.0093L827.569 51.3179C827.78 51.1748 828.017 51.0369 828.298 50.8839L826.389 47.3691ZM825.321 48.0094C825.281 48.0366 825.243 48.063 825.211 48.0849C825.177 48.1086 825.153 48.1259 825.126 48.1439C825.075 48.1791 825.047 48.1972 825.03 48.2079C825.013 48.2182 825.021 48.2124 825.047 48.2006C825.073 48.1884 825.128 48.166 825.207 48.1475L826.124 52.041C826.87 51.8651 827.53 51.3442 827.569 51.3179L825.321 48.0094ZM825.206 48.1477C825.346 48.1147 825.546 48.0932 825.78 48.132C826.017 48.1713 826.209 48.2586 826.346 48.3444C826.47 48.4221 826.54 48.4937 826.548 48.5013C826.55 48.5036 826.546 48.4993 826.48 48.4252L823.488 51.0795C823.525 51.1214 823.819 51.4814 824.22 51.7329C824.778 52.0832 825.445 52.2009 826.124 52.0409L825.206 48.1477ZM826.48 48.4252C826.131 48.0312 825.75 47.6988 825.369 47.4174L822.993 50.6353C823.189 50.7798 823.353 50.9279 823.488 51.0795L826.48 48.4252ZM825.369 47.4173C823.675 46.1674 821.293 45.5334 819.04 46.3937L820.468 50.1304C821.171 49.8619 822.135 50.0022 822.993 50.6354L825.369 47.4173ZM819.04 46.3937C818.08 46.7604 817.085 47.4027 816.356 48.3629L819.542 50.7814C819.737 50.5246 820.066 50.2837 820.468 50.1304L819.04 46.3937ZM816.356 48.3629C816.176 48.5999 816.031 48.8421 815.926 49.0238C815.786 49.2646 815.754 49.3302 815.651 49.5036C815.573 49.6352 815.524 49.7047 815.495 49.7418C815.466 49.7779 815.488 49.7407 815.568 49.6876L817.783 53.0184C818.474 52.5588 818.882 51.897 819.091 51.545C819.395 51.0333 819.426 50.9339 819.542 50.7814L816.356 48.3629ZM815.568 49.6878C815.782 49.5454 816.102 49.4114 816.499 49.4101C816.874 49.4088 817.149 49.5271 817.283 49.5976C817.402 49.6602 817.471 49.7193 817.432 49.6888C817.395 49.6594 817.424 49.6821 817.36 49.6316C817.324 49.6036 817.271 49.5621 817.208 49.5172L814.881 52.7704C814.873 52.7647 814.873 52.7643 814.889 52.7773C814.898 52.784 814.906 52.7907 814.921 52.8022C814.933 52.8124 814.952 52.8268 814.971 52.8418C815.033 52.8903 815.201 53.022 815.42 53.1373C815.654 53.2605 816.031 53.4117 816.513 53.4101C817.016 53.4084 817.448 53.2408 817.783 53.0182L815.568 49.6878ZM817.208 49.5174C817.075 49.4218 816.943 49.3208 816.77 49.1884C816.608 49.0647 816.411 48.9154 816.2 48.7699L813.933 52.0655C814.055 52.1496 814.182 52.2453 814.343 52.3682C814.493 52.4825 814.684 52.6298 814.88 52.7702L817.208 49.5174ZM816.2 48.77C815.56 48.3298 814.824 47.9713 813.999 47.7794L813.093 51.6756C813.355 51.7363 813.635 51.8604 813.932 52.0654L816.2 48.77ZM813.999 47.7794C813.426 47.6464 812.57 47.5456 811.707 47.7996C810.704 48.0947 809.759 48.872 809.468 50.2079L813.377 51.0575C813.36 51.1356 813.301 51.2886 813.157 51.4339C813.022 51.5697 812.889 51.6211 812.836 51.6368C812.79 51.6505 812.792 51.6413 812.859 51.6431C812.922 51.6447 813.005 51.655 813.093 51.6756L813.999 47.7794ZM809.468 50.2081C809.303 50.9675 809.425 51.8391 809.435 51.9817L813.426 51.7035C813.417 51.5833 813.405 51.4547 813.398 51.3708C813.39 51.2746 813.385 51.2061 813.382 51.1469C813.377 51.0236 813.387 51.014 813.377 51.0573L809.468 50.2081ZM809.435 51.9815C809.473 52.5284 809.514 53.0857 809.562 53.6461L813.547 53.301C813.502 52.775 813.463 52.2448 813.426 51.7037L809.435 51.9815ZM809.562 53.646C809.601 54.0901 809.653 54.5645 809.749 55.0652L813.678 54.3134C813.618 54.004 813.58 53.6818 813.547 53.301L809.562 53.646ZM809.749 55.0654C809.761 55.1269 809.773 55.1835 809.782 55.2227C809.79 55.2558 809.802 55.3099 809.807 55.3303C809.822 55.3951 809.828 55.4234 809.83 55.4379C809.833 55.4567 809.824 55.4118 809.824 55.3273C809.824 55.2818 809.827 55.2081 809.842 55.1148C809.857 55.0221 809.888 54.8905 809.952 54.7393L813.631 56.3083C813.8 55.9133 813.824 55.5505 813.824 55.3379C813.825 55.1103 813.798 54.9108 813.775 54.775C813.751 54.6348 813.723 54.5086 813.705 54.4304C813.693 54.3794 813.689 54.3649 813.682 54.3338C813.677 54.3089 813.676 54.3057 813.678 54.3131L809.749 55.0654ZM809.952 54.7395C810.065 54.4733 810.24 54.2453 810.45 54.0702C810.651 53.9028 810.849 53.8123 810.993 53.7633C811.134 53.7151 811.248 53.6981 811.312 53.6913C811.377 53.6843 811.422 53.6848 811.436 53.685C811.45 53.6853 811.448 53.6863 811.345 53.6753C811.308 53.6714 811.238 53.6639 811.167 53.6585C811.101 53.6535 810.978 53.6456 810.835 53.6515L811 57.6481C810.877 57.6532 810.786 57.6385 810.923 57.653C810.987 57.6598 811.167 57.6805 811.357 57.6843C811.53 57.6877 811.888 57.6843 812.284 57.5491C812.735 57.3954 813.323 57.0327 813.632 56.3081L809.952 54.7395ZM810.835 53.6515C810.217 53.6772 809.487 53.7892 808.762 54.1258L810.446 57.7541C810.55 57.7057 810.721 57.6597 811.001 57.6481L810.835 53.6515ZM808.762 54.1259C808.335 54.3238 807.354 54.8358 806.931 55.9902L810.686 57.3673C810.608 57.5807 810.485 57.7056 810.428 57.7537C810.381 57.7934 810.37 57.7892 810.446 57.754L808.762 54.1259ZM806.931 55.9897C806.655 56.7407 806.767 57.4235 806.814 57.7057L810.759 57.0412C810.745 56.9612 810.751 56.9731 810.751 57.0238C810.751 57.0864 810.743 57.2134 810.686 57.3678L806.931 55.9897ZM806.814 57.7056C806.81 57.6829 806.806 57.6457 806.805 57.599C806.804 57.5526 806.807 57.5183 806.809 57.5071C806.809 57.5033 806.809 57.5055 806.807 57.518C806.805 57.532 806.802 57.5485 806.798 57.5793C806.789 57.6348 806.773 57.7292 806.76 57.8388L810.729 58.3336C810.733 58.3016 810.738 58.2712 810.747 58.2103C810.755 58.1602 810.772 58.0594 810.784 57.9506C810.813 57.6864 810.817 57.3905 810.759 57.0413L806.814 57.7056ZM809.631 56.2934C809.153 56.0573 808.253 55.7374 807.352 55.6413C806.911 55.5942 806.261 55.5761 805.611 55.8066C804.854 56.0745 804.1 56.6946 803.847 57.7398L807.735 58.6816C807.687 58.8794 807.578 59.097 807.397 59.2817C807.225 59.4567 807.05 59.5401 806.946 59.577C806.847 59.612 806.791 59.6132 806.804 59.6124C806.814 59.6118 806.854 59.6108 806.928 59.6187C807.082 59.6351 807.278 59.6781 807.481 59.74C807.688 59.8033 807.826 59.8632 807.858 59.879L809.631 56.2934ZM803.847 57.7398C803.683 58.4174 803.813 59.0108 803.924 59.3651C804.036 59.7245 804.195 60.0375 804.265 60.1774L807.844 58.3913C807.806 58.315 807.783 58.2671 807.764 58.2242C807.745 58.1826 807.741 58.1677 807.742 58.1723C807.743 58.1761 807.758 58.2225 807.765 58.3022C807.773 58.3843 807.774 58.5179 807.735 58.6815L803.847 57.7398ZM804.265 60.1774C804.62 60.8885 805.065 61.4998 805.441 61.9898L808.615 59.5548C808.276 59.1136 808.022 58.7485 807.844 58.3913L804.265 60.1774ZM805.441 61.9897C806.315 63.1293 807.343 64.092 808.422 64.899L810.818 61.6967C809.982 61.0707 809.231 60.3579 808.615 59.5549L805.441 61.9897ZM808.805 61.4716C806.409 62.541 805.756 65.7548 807.834 67.6374L810.52 64.6733C810.525 64.6785 810.553 64.7089 810.573 64.7657C810.591 64.8184 810.594 64.8719 810.585 64.9192C810.569 65.0143 810.506 65.0928 810.435 65.1241L808.805 61.4716ZM807.834 67.6374C808.837 68.5468 810.06 68.6381 810.815 68.6034L810.631 64.6076C810.564 64.6107 810.51 64.6096 810.469 64.6063C810.428 64.6031 810.405 64.5982 810.398 64.5964C810.392 64.5948 810.404 64.5973 810.429 64.6098C810.455 64.6231 810.487 64.6439 810.52 64.6733L807.834 67.6374ZM810.814 68.6034C810.891 68.5999 810.959 68.5938 811.013 68.5879C811.068 68.5821 811.118 68.5755 811.159 68.5699C811.198 68.5644 811.237 68.5587 811.264 68.5547C811.294 68.5502 811.314 68.5473 811.331 68.545C811.339 68.5439 811.345 68.5431 811.349 68.5426C811.353 68.5421 811.354 68.5419 811.354 68.542C811.354 68.542 811.351 68.5423 811.345 68.5428C811.339 68.5432 811.33 68.5439 811.318 68.5445C811.296 68.5455 811.252 68.5468 811.193 68.5438C811.136 68.5408 811.043 68.5326 810.928 68.5069L811.796 64.6023C811.506 64.5379 811.257 64.5429 811.13 64.5489C810.988 64.5556 810.861 64.5719 810.785 64.5824C810.745 64.5879 810.706 64.5937 810.678 64.5978C810.647 64.6025 810.627 64.6053 810.61 64.6078C810.568 64.6135 810.586 64.6096 810.631 64.6076L810.814 68.6034ZM810.928 68.5071C810.771 68.4721 810.66 68.4244 810.639 68.4151C810.624 68.4089 810.615 68.4048 810.625 68.4093C810.629 68.4109 810.655 68.423 810.68 68.434C810.777 68.4773 811.092 68.6188 811.514 68.6478L811.788 64.6572C811.947 64.6681 812.075 64.6993 812.163 64.7267C812.206 64.7403 812.241 64.7533 812.265 64.7627C812.289 64.772 812.305 64.7793 812.309 64.7811C812.312 64.7821 812.312 64.7823 812.309 64.781C812.308 64.7804 812.306 64.7796 812.304 64.7784C812.301 64.7774 812.298 64.7756 812.294 64.774C812.287 64.7707 812.275 64.7655 812.263 64.7597C812.249 64.7538 812.233 64.7464 812.214 64.7382C812.176 64.7222 812.121 64.6996 812.054 64.6762C811.987 64.6527 811.899 64.6253 811.795 64.6021L810.928 68.5071ZM811.514 68.6478C812.618 68.7238 813.764 68.4604 814.467 68.3003L813.578 64.4003C812.788 64.5803 812.211 64.6863 811.789 64.6572L811.514 68.6478ZM814.467 68.3003C816.116 67.9244 817.7 67.1343 819.006 65.9106L816.27 62.9922C815.52 63.6951 814.588 64.1701 813.578 64.4003L814.467 68.3003ZM819.006 65.9106C819.092 65.8295 819.045 65.8887 818.918 65.9527C818.846 65.9888 818.761 66.0205 818.668 66.0412C818.577 66.0616 818.503 66.0661 818.454 66.0656L818.495 62.0658C817.389 62.0544 816.693 62.5963 816.27 62.9921L819.006 65.9106ZM818.454 66.0656C818.452 66.0655 818.476 66.0656 818.645 66.0907C818.771 66.1093 819.05 66.1541 819.35 66.1617L819.452 62.163C819.456 62.1631 819.444 62.163 819.405 62.1584C819.362 62.1533 819.316 62.1464 819.231 62.1338C819.092 62.1133 818.807 62.0689 818.495 62.0658L818.454 66.0656ZM819.35 66.1617C820.102 66.181 820.751 66.0038 821.237 65.8368C821.479 65.7535 821.71 65.6618 821.895 65.5882C822.095 65.509 822.245 65.4493 822.392 65.3978L821.064 61.6247C820.828 61.7075 820.6 61.7989 820.42 61.8703C820.226 61.9473 820.077 62.0055 819.936 62.0541C819.655 62.1508 819.522 62.1648 819.452 62.163L819.35 66.1617ZM819.73 63.6014C819.789 64.9134 820.151 66.3023 820.668 67.444L824.312 65.7942C823.985 65.0726 823.76 64.1803 823.726 63.421L819.73 63.6014ZM820.668 67.444C821.534 69.3559 823.452 69.4887 824.07 69.547L824.446 65.5647C824.282 65.5493 824.176 65.5363 824.094 65.5212C824.014 65.5064 823.996 65.4965 824.015 65.5042C824.039 65.5145 824.104 65.5466 824.176 65.6141C824.252 65.6844 824.294 65.7548 824.312 65.7941L820.668 67.444ZM824.07 69.547C825.323 69.6654 826.552 69.6562 827.706 69.6231C828.9 69.5888 829.946 69.5328 831.038 69.5343L831.043 65.5343C829.875 65.5327 828.659 65.5941 827.591 65.6247C826.483 65.6565 825.45 65.6596 824.446 65.5648L824.07 69.547ZM830.598 65.5839C829.574 65.8163 828.534 65.9805 827.394 66.1719C826.281 66.3586 825.09 66.5692 823.903 66.889L824.944 70.7511C825.926 70.4865 826.949 70.3025 828.056 70.1167C829.135 69.9355 830.319 69.7489 831.483 69.4847L830.598 65.5839ZM823.903 66.8889C823.485 67.0016 822.706 67.286 822.246 68.0882C821.726 68.9936 821.987 69.8629 822.173 70.2706C822.356 70.6718 822.617 70.9841 822.757 71.1454C822.879 71.2853 823.111 71.5305 823.133 71.5546L826.089 68.8604C825.902 68.6546 825.883 68.6444 825.777 68.5222C825.689 68.4215 825.746 68.4653 825.812 68.61C825.881 68.7615 826.112 69.3866 825.715 70.0789C825.542 70.3811 825.32 70.5553 825.176 70.6432C825.104 70.6871 825.045 70.7137 825.008 70.7287C824.971 70.7438 824.948 70.7501 824.944 70.7512L823.903 66.8889ZM823.133 71.5545C823.606 72.0744 824 72.7669 824.288 73.5692L828.052 72.2142C827.629 71.0394 826.996 69.8552 826.089 68.8604L823.133 71.5545ZM827.759 74.1058C828.493 73.1451 829.628 72.7597 830.311 72.9351L831.306 69.0608C828.636 68.3753 825.987 69.8362 824.581 71.6776L827.759 74.1058ZM830.311 72.9351C830.544 72.9951 830.9 73.2528 831.107 73.715C831.301 74.1477 831.248 74.4846 831.107 74.7006L834.453 76.8921C835.495 75.3 835.383 73.4755 834.758 72.0799C834.146 70.7137 832.924 69.4763 831.305 69.0608L830.311 72.9351ZM831.107 74.7005C831.007 74.8522 830.83 75.0203 830.465 75.2211C830.045 75.4516 829.662 75.5875 829.018 75.8691L830.618 79.535C831.006 79.3656 831.76 79.0735 832.392 78.7263C833.078 78.3493 833.865 77.7901 834.453 76.8922L831.107 74.7005ZM828.373 79.0854C828.497 79.215 828.633 79.4361 828.814 79.9079C828.94 80.2355 829.218 81.0888 829.489 81.6738L833.118 79.9921C832.904 79.5303 832.842 79.2389 832.548 78.473C832.309 77.8515 831.944 77.0305 831.262 76.3187L828.373 79.0854ZM829.489 81.6738C829.629 81.9772 829.848 82.4134 830.167 82.8249C830.486 83.2357 831.002 83.7482 831.776 84.0084L833.051 80.2171C833.17 80.2572 833.252 80.3114 833.295 80.3458C833.335 80.3779 833.344 80.3942 833.328 80.373C833.312 80.3522 833.283 80.3111 833.244 80.242C833.205 80.1735 833.164 80.0915 833.118 79.992L829.489 81.6738ZM831.776 84.0084C831.919 84.0565 832.048 84.0871 832.102 84.0999C832.14 84.109 832.149 84.111 832.165 84.1149C832.175 84.1176 832.171 84.1168 832.159 84.1133C832.12 84.1018 831.831 84.0171 831.559 83.7348L834.44 80.9593C834.012 80.515 833.529 80.3464 833.285 80.2749C833.172 80.2418 833.056 80.2152 833.031 80.2094C832.981 80.1973 833.007 80.2023 833.051 80.2171L831.776 84.0084ZM831.56 83.7353C831.505 83.6785 831.474 83.6331 831.47 83.6268C831.469 83.6255 831.472 83.6298 831.485 83.6507C831.493 83.6632 831.521 83.708 831.545 83.7442C831.663 83.9273 831.905 84.2794 832.341 84.5844L834.631 81.3044C834.718 81.3649 834.789 81.4325 834.843 81.4944C834.89 81.5495 834.914 81.5888 834.901 81.5684C834.891 81.5532 834.887 81.5462 834.862 81.5068C834.842 81.4758 834.812 81.4279 834.775 81.3747C834.7 81.2645 834.591 81.1159 834.439 80.9588L831.56 83.7353ZM832.341 84.5842C834.04 85.7704 836.688 85.7528 838.319 84.076L835.452 81.2869C835.415 81.3244 835.307 81.3986 835.1 81.4119C834.888 81.4254 834.715 81.3633 834.631 81.3045L832.341 84.5842ZM838.319 84.076C840.078 82.2674 839.39 79.7823 838.371 78.5098L835.249 81.0111C835.289 81.0607 835.327 81.1241 835.355 81.1936C835.382 81.2632 835.393 81.3211 835.396 81.3584C835.398 81.3948 835.392 81.3967 835.4 81.3727C835.41 81.3432 835.429 81.3099 835.452 81.2869L838.319 84.076ZM837.582 81.6053C837.905 81.4703 839 81.0885 839.803 80.5101C840.248 80.1896 840.762 79.7097 841.092 79.0097C841.442 78.2665 841.504 77.444 841.295 76.6195L837.418 77.6043C837.421 77.6175 837.411 77.5832 837.417 77.5138C837.423 77.4422 837.443 77.3687 837.473 77.3047C837.529 77.1866 837.577 77.1837 837.464 77.2649C837.352 77.3458 837.175 77.443 836.907 77.5604C836.778 77.617 836.643 77.6716 836.496 77.7306C836.359 77.7851 836.189 77.8523 836.038 77.9155L837.582 81.6053ZM839.49 79.1074C840.452 79.0433 841.508 78.6467 842.411 78.1768C843.352 77.6875 844.334 77.0105 845.144 76.2011C845.924 75.4208 846.72 74.3395 846.943 73.0266C847.194 71.5452 846.656 70.1341 845.431 69.0478L842.777 72.0406C842.96 72.2033 842.997 72.2988 843 72.3068C843 72.3078 843.007 72.3125 842.999 72.3572C842.974 72.5059 842.819 72.8687 842.315 73.3728C841.84 73.8478 841.205 74.2952 840.565 74.6283C839.887 74.9809 839.399 75.1046 839.223 75.1163L839.49 79.1074ZM845.091 72.2836C846.268 71.6159 847.364 70.4994 848.009 69.1595C848.669 67.7871 848.918 66.0085 848.014 64.2873L844.473 66.1476C844.646 66.4762 844.664 66.8853 844.404 67.4259C844.128 67.9991 843.617 68.5211 843.117 68.8049L845.091 72.2836ZM848.014 64.2873C846.711 61.8063 843.912 60.9531 842.009 60.8525L841.798 64.8469C843.06 64.9136 844.118 65.4717 844.473 66.1476L848.014 64.2873Z" fill="black" mask="url(#path-13-inside-1_657_9859)"/>
<path d="M878.754 256.999L862.108 181.958H816.038L809.938 256.999H878.754Z" fill="#C5CFD6" stroke="black" stroke-width="2"/>
<path d="M878.754 256.999L862.108 181.958H849.103L840.534 256.999H878.754Z" fill="black" fill-opacity="0.1" stroke="black" stroke-width="2"/>
<path d="M761.359 168.442L760.806 169.035L760.112 168.616C757.929 167.3 754.876 167.439 752.279 168.518C750.997 169.051 749.896 169.786 749.13 170.604C748.361 171.426 747.987 172.264 747.988 173.029C747.993 176.231 748.73 182.497 749.865 190.232C750.995 197.939 752.509 207.031 754.042 215.841C756.064 227.459 758.126 238.617 759.383 245.416C760.028 248.907 760.461 251.249 760.567 251.914C760.787 253.298 762.125 254.295 763.588 254.402C764.292 254.453 764.925 254.283 765.384 253.927C765.824 253.585 766.201 252.998 766.279 252.005C766.898 244.155 768.042 217.017 766.899 204.512C766.424 199.321 765.913 194.377 765.41 189.968L767.28 189.372C773.463 200.586 782.995 216.6 795.882 237.422L801.411 234.885C795.932 216.818 791.446 204.087 787.953 196.647C781.821 183.588 776.093 172.452 773.707 168.567C772.001 165.79 769.757 164.968 767.57 165.168C765.298 165.375 762.982 166.703 761.359 168.442Z" fill="#B28B67" stroke="black" stroke-width="2"/>
<path d="M786.868 229.643L800.786 224.568L776.77 167.435C775.491 165.411 773.685 164.517 771.66 164.363C769.568 164.204 767.214 164.84 765.024 165.962C762.839 167.081 760.907 168.638 759.657 170.204C758.356 171.834 758.003 173.189 758.313 174.041C760.55 180.187 767.407 193.312 773.926 205.45C775.837 209.008 777.71 212.465 779.422 215.626C780.625 217.847 781.749 219.921 782.752 221.782C783.964 224.033 784.997 225.968 785.769 227.458C786.221 228.328 786.596 229.071 786.868 229.643Z" fill="#1F28CF" stroke="black" stroke-width="2"/>
<path d="M802.494 232.578L802.493 232.579C801.443 234.065 800.427 235.173 799.438 235.747C798.27 236.425 796.612 236.812 794.573 236.991L794.186 237.025L793.878 236.787L792.02 235.351L781.821 249.464L781.74 249.575L781.633 249.66C780.601 250.484 779.296 251.492 777.72 252.684C777.429 252.904 777.287 253.1 777.22 253.258C777.157 253.406 777.133 253.581 777.184 253.818C777.277 254.254 777.616 254.862 778.351 255.645L807.176 238.932C806.559 237.308 806.027 236.122 805.582 235.348C805.22 234.717 804.351 233.785 802.839 232.534C802.834 232.531 802.83 232.527 802.825 232.524L802.825 232.524C802.717 232.447 802.57 232.473 802.494 232.578Z" fill="#E4E4E4" stroke="black" stroke-width="2"/>
<path d="M767.901 249.263C767.845 249.141 767.706 249.092 767.59 249.144L767.588 249.145C765.939 249.904 764.507 250.354 763.364 250.354C762.014 250.354 760.386 249.858 758.531 248.989L758.178 248.823L758.03 248.463L757.137 246.287L741.279 253.386L741.154 253.442L741.018 253.463C739.714 253.658 738.082 253.876 736.124 254.116C735.763 254.161 735.543 254.26 735.406 254.363C735.278 254.459 735.17 254.599 735.096 254.829C734.959 255.255 734.95 255.952 735.197 257H768.478C768.753 255.283 768.883 253.989 768.883 253.095C768.883 252.366 768.595 251.122 767.908 249.279C767.906 249.274 767.903 249.269 767.901 249.263Z" fill="#E4E4E4" stroke="black" stroke-width="2"/>
<path d="M746.276 177.5C746.276 185.658 748.212 199.329 750.166 211.489C750.874 215.893 751.582 220.083 752.197 223.726C752.43 225.102 752.649 226.4 752.85 227.602C753.216 229.792 753.523 231.666 753.738 233.109C753.857 233.904 753.952 234.595 754.013 235.143L768.806 235.155C767.619 218.508 766.812 205.928 766.384 197.417C766.166 193.073 766.047 189.778 766.027 187.54C766.017 186.425 766.032 185.551 766.074 184.934C766.095 184.63 766.125 184.355 766.171 184.133C766.193 184.025 766.227 183.89 766.284 183.757C766.321 183.671 766.458 183.359 766.806 183.18C766.969 183.095 767.126 183.068 767.184 183.059C767.266 183.045 767.349 183.038 767.424 183.033C767.574 183.024 767.754 183.022 767.952 183.024C768.353 183.03 768.893 183.055 769.548 183.095C770.862 183.175 772.686 183.32 774.873 183.509C777.949 183.774 781.763 184.127 785.92 184.512C787.677 184.675 789.495 184.844 791.345 185.014C803.832 186.16 817.711 187.367 824.084 187.367C833.127 187.367 839.351 184.518 843.431 179.168C847.426 173.932 849.483 166.152 849.891 155.864H814.24C810.496 156.275 798.978 158.431 786.508 160.841C781.399 161.828 776.14 162.856 771.211 163.819C764.091 165.211 757.662 166.468 753.378 167.271C750.579 167.796 748.841 169.274 747.775 171.125C746.687 173.012 746.276 175.334 746.276 177.5Z" fill="#2B44FF" stroke="black" stroke-width="2"/>
<path d="M806.857 116.416L786.505 105.222L786.341 105.132L786.221 104.989C782.722 100.816 779.299 97.5981 775.958 95.311C775.841 95.2661 775.724 95.2283 775.613 95.2012C775.691 95.4473 775.844 95.8073 776.125 96.3091C776.991 97.8532 777.876 99.5087 778.43 100.914C778.706 101.613 778.923 102.305 778.999 102.922C779.069 103.496 779.051 104.269 778.519 104.842C778.059 105.338 777.469 105.48 777.013 105.524C776.68 105.557 776.297 105.544 775.994 105.534C775.91 105.531 775.832 105.529 775.762 105.527C775.284 105.518 774.989 105.55 774.784 105.649C775.082 105.868 775.585 106.151 776.348 106.489C778.157 107.29 781.093 108.259 785.194 109.394L785.427 109.458L785.605 109.621L800.475 123.295L806.857 116.416ZM763.196 128.766C766.409 129.666 769.809 131.347 773.395 133.778L773.795 126.694L764.913 121.795L764.538 121.587L764.429 121.172C763.777 118.68 763.081 116.892 762.368 115.745C761.925 115.033 761.53 114.649 761.196 114.457C761.208 114.61 761.223 114.777 761.239 114.959C761.261 115.199 761.285 115.465 761.306 115.761C761.357 116.466 761.393 117.382 761.155 118.106C761.028 118.491 760.79 118.93 760.331 119.218C759.86 119.513 759.322 119.545 758.816 119.44C757.995 119.271 756.973 118.799 755.97 118.281C755.218 117.893 754.409 117.441 753.622 117.002C753.336 116.843 753.053 116.685 752.777 116.532C751.716 115.946 750.76 115.44 750.01 115.139C749.649 114.993 749.387 114.917 749.215 114.89C749.098 115.052 748.998 115.307 748.958 115.702C748.906 116.217 748.968 116.868 749.143 117.597C749.495 119.059 750.246 120.613 751.027 121.613C752.61 123.639 754.014 124.946 755.8 125.982C757.61 127.032 759.861 127.832 763.196 128.766ZM749.088 114.88C749.089 114.881 749.094 114.88 749.103 114.879C749.092 114.879 749.088 114.88 749.088 114.88Z" fill="#997659" stroke="black" stroke-width="2"/>
<path d="M813.267 126.587C819.445 126.413 822.619 119.075 818.483 114.52C811.102 114.387 801.434 112.792 791.107 106.484L787.655 114.216C794.913 121.264 804.784 126.827 813.267 126.587Z" fill="#2026A2" stroke="black" stroke-width="2"/>
<path d="M809.746 128.903L809.584 129.452L809.029 129.591C804.84 130.64 799.336 130.526 792.581 129.337C786.016 128.18 778.195 125.994 769.129 122.789C767.009 127.258 765.455 131.089 764.457 134.287C763.492 137.379 763.067 139.816 763.116 141.639C778.931 149.863 792.43 153.498 803.5 153.741L804.532 153.763L804.477 154.794C804.121 161.466 804.934 167.747 807.607 173.455C808.818 176.042 811.551 177.517 815.521 178.183C819.474 178.847 824.403 178.662 829.598 178.156C832.753 177.848 835.939 177.431 839.036 177.025C841.057 176.76 843.039 176.501 844.951 176.28C849.245 175.783 853.192 175.48 856.106 175.859C859.199 165.143 857.627 157.561 855.229 150.875C854.613 149.159 853.944 147.502 853.276 145.852L853.262 145.818C852.593 144.162 851.926 142.511 851.337 140.846C850.156 137.51 849.27 134.07 849.267 130.259C849.261 122.464 846.125 112.458 842.703 104.33C840.998 100.282 839.239 96.7404 837.798 94.222C837.076 92.9594 836.445 91.975 835.951 91.3176C835.701 90.9856 835.507 90.7652 835.371 90.6379C835.367 90.6341 835.363 90.6304 835.359 90.627H819.332C818.43 100.392 815.214 110.915 812.016 121.38C811.247 123.895 810.48 126.406 809.746 128.903Z" fill="#1F28CF" stroke="black" stroke-width="2"/>
<path d="M155.977 39.6193L156.201 39.1809L155.99 38.7356C154.227 35.0158 153.526 30.9413 154.875 27.0123C155.844 24.1932 157.482 22.5924 159.369 21.7974C161.287 20.9888 163.575 20.9683 165.873 21.5424C168.167 22.1157 170.398 23.2649 172.145 24.6903C173.908 26.129 175.082 27.7668 175.435 29.2723C176.217 32.6162 175.532 38.1796 174.014 42.9758C173.262 45.3559 172.329 47.4642 171.334 48.952C170.837 49.6964 170.348 50.2484 169.891 50.6046C169.434 50.96 169.066 51.0781 168.78 51.0754C168.144 51.0693 167.028 50.6723 165.584 49.7572C164.184 48.8695 162.605 47.5778 161.074 45.9832L159.615 44.4639L159.361 46.5536L157.384 62.8158L145.737 59.6852L155.977 39.6193Z" fill="#D4A181" stroke="black" stroke-width="2"/>
<path d="M158.524 39.8263C157.538 40.7768 156.528 41.5444 155.56 42.0624C154.283 42.7451 153.192 42.9368 152.339 42.7076C150.547 42.226 149.189 40.5738 148.489 38.0428C147.794 35.5299 147.817 32.3368 148.653 29.2072C148.711 28.9899 148.773 28.7753 148.839 28.5635L149.43 26.6563L147.549 27.3228C146.047 27.8551 144.582 28.6111 143.165 29.3902C142.755 29.6154 142.351 29.8412 141.951 30.0652C140.943 30.6292 139.956 31.1814 138.948 31.6803C136.147 33.0674 133.475 33.8869 130.657 33.1294C128.849 32.6435 127.51 31.3099 126.692 29.5113C125.87 27.7037 125.609 25.4878 125.949 23.4225C126.29 21.3539 127.213 19.5396 128.644 18.4273C130.04 17.3415 132.049 16.8229 134.814 17.5663C142.916 19.744 146.483 21.9689 149.348 24.5522L150.196 25.3169L150.841 24.3764C151.969 22.731 153.332 21.5051 154.741 20.7977L154.794 20.7711L154.843 20.7384C155.099 20.5695 155.524 20.398 156.151 20.2668L156.168 20.2634L156.184 20.2594C156.551 20.1698 156.916 20.1167 157.278 20.1009L157.301 20.0999L157.324 20.0978C159.496 19.9004 162.573 20.154 165.934 20.9324C166.559 21.0771 167.168 21.2341 167.758 21.4013L168.731 21.6767L168.994 20.7013C169.719 18.0209 172.468 16.4365 175.138 17.1541C177.812 17.8731 179.404 20.6331 178.686 23.3228C177.991 25.9236 175.392 27.4985 172.803 26.9492L172.682 26.9234L172.558 26.9281C170.755 26.996 168.476 26.7994 165.991 26.3075L164.801 26.0719L164.799 27.2856C164.797 28.1677 164.666 29.1558 164.371 30.2583C164.242 30.7431 164.081 31.2385 163.891 31.7397C163.542 31.4551 163.139 31.2345 162.686 31.1127C160.047 30.4035 157.65 32.0953 157.04 34.3808C156.471 36.5081 156.994 38.6264 158.524 39.8263Z" fill="#191847" stroke="black" stroke-width="2"/>
<path d="M149.519 189.735L149.509 189.685L149.495 189.636L127.819 114.704H157.997L168.231 246.133H159.739L149.519 189.735Z" fill="#BA8B72" stroke="black" stroke-width="2"/>
<path d="M118.156 178.581C118.505 174.942 119.101 153.634 117.613 114.704H153.652C145.078 151.838 139.225 172.951 137.253 178.129C136.806 179.304 136.174 181.33 135.282 184.189C132.045 194.564 125.385 215.908 111.713 247.341H102.906C115.492 207.141 117.685 183.632 118.121 178.961C118.134 178.816 118.146 178.689 118.156 178.581Z" fill="#D4A181" stroke="black" stroke-width="2"/>
<path d="M156.555 238.284C142.768 182.058 133.003 140.867 127.258 114.704H158.305C166.372 142.089 171.055 180.378 170.012 238.284H156.555Z" fill="#69A1AC" stroke="black" stroke-width="2"/>
<path d="M117.591 238.901H103.284C115.049 192.192 118.921 153.696 117.53 114.704H156.035C147.444 161.384 134.949 199.656 117.591 238.901Z" fill="#89C5CC" stroke="black" stroke-width="2"/>
<path d="M134.943 254.544C135.051 254.563 135.128 254.668 135.109 254.784L134.943 254.544Z" fill="#191847" stroke="black" stroke-width="2"/>
<path d="M191.521 254.544C191.629 254.563 191.706 254.668 191.687 254.784L191.521 254.544Z" fill="#191847" stroke="black" stroke-width="2"/>
<path d="M171.089 80.298L192.435 73.0462L192.612 72.986L192.755 72.8658C196.807 69.4674 200.624 66.97 204.207 65.3488C204.306 65.3295 204.406 65.3152 204.5 65.307C204.381 65.5241 204.18 65.8271 203.85 66.2302C202.761 67.5611 201.634 68.9969 200.865 70.2499C200.483 70.8725 200.157 71.5008 199.98 72.0819C199.815 72.6212 199.699 73.3756 200.119 74.0249C200.482 74.5853 201.03 74.8234 201.463 74.9442C201.778 75.0322 202.149 75.0853 202.442 75.1271C202.523 75.1386 202.597 75.1493 202.663 75.1596C203.089 75.2262 203.353 75.2999 203.528 75.4101C203.205 75.5627 202.691 75.7396 201.939 75.9248C200.073 76.3842 197.099 76.8139 192.979 77.2052L192.739 77.2279L192.536 77.3576L176.011 87.9089L171.089 80.298ZM210.795 99.4722C207.575 99.7878 204.046 100.815 200.216 102.523L201.017 95.7429L210.333 92.5646L210.739 92.426L210.918 92.036C211.962 89.7623 212.928 88.1724 213.801 87.1991C214.319 86.622 214.742 86.3256 215.081 86.1903C215.048 86.3197 215.01 86.4588 214.969 86.6091C214.908 86.8352 214.84 87.0867 214.769 87.3684C214.602 88.0341 214.412 88.9097 214.519 89.649C214.577 90.0428 214.733 90.5109 215.131 90.8696C215.539 91.2383 216.056 91.3607 216.563 91.3462C217.382 91.3227 218.444 91.0436 219.492 90.7179C220.277 90.4738 221.129 90.1786 221.957 89.8917C222.258 89.7874 222.555 89.6842 222.846 89.5849C223.96 89.2038 224.961 88.8822 225.727 88.7212C226.086 88.646 226.342 88.6172 226.509 88.6185C226.587 88.7874 226.635 89.0392 226.609 89.4088C226.573 89.9063 226.404 90.5159 226.115 91.1814C225.534 92.5175 224.555 93.8746 223.642 94.6962C221.787 96.3643 220.224 97.3755 218.343 98.0626C216.436 98.7595 214.147 99.1437 210.795 99.4722ZM215.221 85.4691C215.221 85.4692 215.221 85.4693 215.221 85.4694L215.221 85.4691ZM226.644 88.6301C226.643 88.6304 226.638 88.6295 226.629 88.6266C226.639 88.6284 226.644 88.6298 226.644 88.6301Z" fill="#D4A181" stroke="black" stroke-width="2"/>
<path d="M163.199 88.9018C157.334 87.693 155.538 80.1724 160.234 76.5269C167.323 77.6488 176.845 77.7588 187.787 73.4841L189.782 81.4178C181.647 86.9248 171.271 90.5651 163.199 88.9018Z" fill="#2026A2" stroke="black" stroke-width="2"/>
<path d="M166.147 91.746L166.212 92.3147L166.734 92.5481C170.576 94.2643 175.872 95.0883 182.545 95.0945C189.026 95.1004 196.88 94.3342 206.096 92.8066C207.371 97.4317 208.213 101.351 208.63 104.574C209.033 107.686 209.031 110.08 208.682 111.81C192.157 116.996 178.622 118.185 167.984 116.542L166.964 116.385L166.84 117.409C166.059 123.852 164.225 129.719 160.707 134.724C159.119 136.983 156.265 137.931 152.353 137.896C148.457 137.862 143.769 136.85 138.878 135.485C135.907 134.657 132.926 133.717 130.027 132.804C128.136 132.209 126.28 131.624 124.485 131.088C120.466 129.889 116.742 128.931 113.885 128.795C112.732 118.038 115.51 111.06 118.927 105.076C119.805 103.538 120.725 102.067 121.642 100.6L121.661 100.571C122.58 99.1 123.498 97.632 124.343 96.1377C126.036 93.144 127.465 89.9988 128.11 86.3473C129.425 78.8951 134.11 69.8546 138.756 62.6571C141.069 59.0729 143.349 55.9826 145.153 53.8177C146.057 52.7323 146.826 51.8981 147.409 51.3539C147.703 51.079 147.925 50.9022 148.075 50.8047C148.076 50.8038 148.078 50.8029 148.079 50.802L163.4 53.512C162.625 63.0066 163.936 73.6162 165.238 84.1645C165.551 86.7006 165.864 89.2332 166.147 91.746Z" fill="#1F28CF" stroke="black" stroke-width="2"/>
</svg>
